<?xml version="1.0" encoding="utf-8"?>
<!-- Svg Vector Icons : http://www.onlinewebfonts.com/icon -->
<!DOCTYPE svg PUBLIC "-//W3C//DTD SVG 1.1//EN" "http://www.w3.org/Graphics/SVG/1.1/DTD/svg11.dtd">
<svg version="1.1" xmlns="http://www.w3.org/2000/svg" xmlns:xlink="http://www.w3.org/1999/xlink" x="0px" y="0px" viewBox="0 0 1000 1000" enable-background="new 0 0 1000 1000" xml:space="preserve">
<metadata> Svg Vector Icons : http://www.onlinewebfonts.com/icon </metadata>
<g><path d="M979.2,230.8l-210-210C754.7,6.2,731,6.4,716.3,21.1L117.6,619.8c-0.9,0.9-1.2,2.3-2,3.3c-1.6,2-3.5,3.5-4.8,5.8c-0.7,1.3-0.7,2.6-1.2,4c-0.3,0.9-1.2,1.5-1.5,2.5L11.5,942.1c-8.4,26.6,19.9,54.8,46.4,46.4l306.8-96.7c0.9-0.3,1.5-1.1,2.4-1.5c1.3-0.5,2.7-0.5,4-1.2c2.4-1.2,3.9-3.2,5.9-4.8c1-0.8,2.3-1,3.2-2l478.9-478.9l0,0l119.7-119.7C993.6,268.9,993.7,245.3,979.2,230.8z M364,793.5l-48.5-93.4c-1.8-3.4-4-6.4-6.6-9s-5.6-4.9-9-6.6l-93.4-48.5l416-416l157.5,157.5L364,793.5z M166,700l88.3,45.8L300,834l-195.8,61.7L166,700z M833.3,324.2L675.8,166.7l66.3-66.3l157.5,157.5L833.3,324.2z"/></g>
</svg>